<?xml version="1.0" encoding="UTF-8" standalone="no"?>
<!-- Generator: Adobe Illustrator 24.1.2, SVG Export Plug-In . SVG Version: 6.00 Build 0)  -->

<svg
   version="1.1"
   id="Layer_1"
   x="0px"
   y="0px"
   viewBox="0 0 234.97446 235.00914"
   xml:space="preserve"
   sodipodi:docname="ukyo-black.svg"
   width="234.97446"
   height="235.00914"
   inkscape:version="1.3 (0e150ed6c4, 2023-07-21)"
   xmlns:inkscape="http://www.inkscape.org/namespaces/inkscape"
   xmlns:sodipodi="http://sodipodi.sourceforge.net/DTD/sodipodi-0.dtd"
   xmlns="http://www.w3.org/2000/svg"
   xmlns:svg="http://www.w3.org/2000/svg"><defs
   id="defs2" /><sodipodi:namedview
   id="namedview2"
   pagecolor="#ffffff"
   bordercolor="#000000"
   borderopacity="0.25"
   inkscape:showpageshadow="2"
   inkscape:pageopacity="0.0"
   inkscape:pagecheckerboard="0"
   inkscape:deskcolor="#d1d1d1"
   showgrid="false"
   inkscape:zoom="1.626"
   inkscape:cx="77.490775"
   inkscape:cy="103.01353"
   inkscape:window-width="1920"
   inkscape:window-height="1009"
   inkscape:window-x="1192"
   inkscape:window-y="359"
   inkscape:window-maximized="1"
   inkscape:current-layer="Layer_1" />&#10;<style
   type="text/css"
   id="style1">&#10;	.st0{fill:none;stroke:#FFFFFF;stroke-width:22;stroke-miterlimit:10;}&#10;	.st1{fill:#FFFFFF;}&#10;</style>&#10;<path
   class="st0"
   d="m 105.08723,218.88723 -89,-89 c -6.9000001,-6.9 -6.9000001,-18 0,-24.8 l 89,-89 c 6.9,-6.9000001 18,-6.9000001 24.8,0 l 89,89 c 6.9,6.9 6.9,18 0,24.8 l -89,89 c -6.8,6.9 -18,6.9 -24.8,0 z"
   id="path1"
   style="stroke:#000000" />&#10;<path
   class="st1"
   d="m 4.9872299,133.68723 c 0,-9.8 7.9000001,-17.7 17.7000001,-17.7 h 78.6 c 9.8,0 17.7,7.9 17.7,17.7 v 78.6 c 0,9.8 -7.9,17.7 -17.7,17.7"
   id="path2"
   style="fill:#000000;stroke:none" />&#10;</svg>
